<svg xmlns="http://www.w3.org/2000/svg" viewBox="0 0 800 500" style="background:#0b0f14">
  <defs>
    <linearGradient id="bgGradAnim" x1="0%" y1="0%" x2="100%" y2="100%">
      <stop offset="0%" style="stop-color:#0f1721"/>
      <stop offset="100%" style="stop-color:#0b0f14"/>
    </linearGradient>
    <filter id="glowAnim">
      <feGaussianBlur stdDeviation="3" result="blur"/>
      <feMerge><feMergeNode in="blur"/><feMergeNode in="SourceGraphic"/></feMerge>
    </filter>
  </defs>
  <rect width="800" height="500" fill="url(#bgGradAnim)"/>

  <!-- Title -->
  <text x="400" y="35" fill="#4a9eff" font-family="monospace" font-size="16" font-weight="bold" text-anchor="middle">Euler Phase Lean - 3D Proof Map</text>

  <!-- Rotating structure -->
  <g transform="translate(400,260)">
    <animateTransform attributeName="transform" type="rotate" from="0 400 260" to="360 400 260" dur="20s" repeatCount="indefinite" additive="sum"/>

    <!-- Orbital rings (depth cue) -->
    <ellipse cx="0" cy="0" rx="180" ry="60" fill="none" stroke="rgba(74,158,255,0.1)" stroke-width="1">
      <animate attributeName="ry" values="60;80;60" dur="4s" repeatCount="indefinite"/>
    </ellipse>
    <ellipse cx="0" cy="0" rx="130" ry="45" fill="none" stroke="rgba(74,158,255,0.08)" stroke-width="1">
      <animate attributeName="ry" values="45;60;45" dur="3s" repeatCount="indefinite"/>
    </ellipse>

    <!-- EulerBoundary cluster (blue, bottom left) -->
    <g>
      <circle cx="-150" cy="40" r="8" fill="#5e9cff" filter="url(#glowAnim)">
        <animate attributeName="cy" values="40;50;40" dur="3s" repeatCount="indefinite"/>
      </circle>
      <circle cx="-130" cy="60" r="5" fill="#5e9cff"/>
      <circle cx="-170" cy="55" r="5" fill="#5e9cff"/>
      <circle cx="-140" cy="25" r="4" fill="#5e9cff"/>
      <circle cx="-160" cy="70" r="4" fill="#5e9cff"/>
    </g>

    <!-- FourierBridge (purple, left) -->
    <g>
      <circle cx="-100" cy="10" r="6" fill="#c77dff">
        <animate attributeName="cy" values="10;0;10" dur="2.5s" repeatCount="indefinite"/>
      </circle>
      <circle cx="-85" cy="-5" r="4" fill="#c77dff"/>
      <circle cx="-115" cy="20" r="4" fill="#c77dff"/>
    </g>

    <!-- SpectralBridge (green, back) -->
    <g opacity="0.7">
      <circle cx="-50" cy="-30" r="5" fill="#4ade80">
        <animate attributeName="opacity" values="0.7;0.9;0.7" dur="3s" repeatCount="indefinite"/>
      </circle>
      <circle cx="-35" cy="-40" r="4" fill="#4ade80"/>
      <circle cx="-65" cy="-20" r="4" fill="#4ade80"/>
    </g>

    <!-- ComplexGateway (cyan, center-left) -->
    <g>
      <circle cx="-20" cy="30" r="6" fill="#22d3d3">
        <animate attributeName="r" values="6;7;6" dur="2s" repeatCount="indefinite"/>
      </circle>
      <circle cx="-5" cy="15" r="4" fill="#22d3d3"/>
      <circle cx="-35" cy="40" r="4" fill="#22d3d3"/>
    </g>

    <!-- ComplexNucleus (amber, center) - main hub -->
    <g>
      <circle cx="30" cy="0" r="10" fill="#fbbf24" filter="url(#glowAnim)">
        <animate attributeName="r" values="10;12;10" dur="2s" repeatCount="indefinite"/>
      </circle>
      <circle cx="50" cy="-20" r="5" fill="#fbbf24"/>
      <circle cx="15" cy="20" r="5" fill="#fbbf24"/>
      <circle cx="55" cy="10" r="4" fill="#fbbf24"/>
      <circle cx="10" cy="-15" r="4" fill="#fbbf24"/>
      <circle cx="45" cy="25" r="4" fill="#fbbf24"/>
    </g>

    <!-- PhaseEigenforms (pink, right-center) -->
    <g>
      <circle cx="90" cy="-25" r="7" fill="#f472b6" filter="url(#glowAnim)">
        <animate attributeName="cy" values="-25;-35;-25" dur="2.8s" repeatCount="indefinite"/>
      </circle>
      <circle cx="110" cy="-40" r="5" fill="#f472b6"/>
      <circle cx="75" cy="-10" r="5" fill="#f472b6"/>
      <circle cx="105" cy="-15" r="4" fill="#f472b6"/>
    </g>

    <!-- AnalyticMaps (orange, top right) -->
    <g>
      <circle cx="140" cy="-55" r="6" fill="#fb923c">
        <animate attributeName="cy" values="-55;-65;-55" dur="3.2s" repeatCount="indefinite"/>
      </circle>
      <circle cx="160" cy="-70" r="5" fill="#fb923c"/>
      <circle cx="125" cy="-45" r="4" fill="#fb923c"/>
      <circle cx="155" cy="-50" r="4" fill="#fb923c"/>
      <circle cx="135" cy="-75" r="4" fill="#fb923c"/>
    </g>

    <!-- ContourIntegral (red, top) -->
    <g>
      <circle cx="60" cy="-70" r="7" fill="#ef4444" filter="url(#glowAnim)">
        <animate attributeName="r" values="7;8;7" dur="1.8s" repeatCount="indefinite"/>
      </circle>
      <circle cx="80" cy="-85" r="5" fill="#ef4444"/>
      <circle cx="45" cy="-60" r="4" fill="#ef4444"/>
      <circle cx="70" cy="-55" r="4" fill="#ef4444"/>
      <circle cx="50" cy="-90" r="4" fill="#ef4444"/>
    </g>

    <!-- CliffordBridge (magenta, right) -->
    <g>
      <circle cx="170" cy="20" r="8" fill="#d946ef" filter="url(#glowAnim)">
        <animate attributeName="cx" values="170;175;170" dur="2.5s" repeatCount="indefinite"/>
      </circle>
      <circle cx="185" cy="5" r="5" fill="#d946ef"/>
      <circle cx="155" cy="35" r="5" fill="#d946ef"/>
      <circle cx="190" cy="30" r="4" fill="#d946ef"/>
      <circle cx="160" cy="10" r="4" fill="#d946ef"/>
      <circle cx="175" cy="45" r="4" fill="#d946ef"/>
    </g>

    <!-- Connecting lines (animated opacity) -->
    <g stroke="rgba(74,158,255,0.2)" stroke-width="1" fill="none">
      <line x1="-150" y1="40" x2="30" y2="0">
        <animate attributeName="stroke-opacity" values="0.2;0.4;0.2" dur="3s" repeatCount="indefinite"/>
      </line>
      <line x1="30" y1="0" x2="90" y2="-25"/>
      <line x1="90" y1="-25" x2="140" y2="-55"/>
      <line x1="30" y1="0" x2="170" y2="20"/>
      <line x1="90" y1="-25" x2="60" y2="-70"/>
      <line x1="-100" y1="10" x2="30" y2="0"/>
      <line x1="-50" y1="-30" x2="30" y2="0"/>
    </g>
  </g>

  <!-- Legend (fixed position) -->
  <g transform="translate(20,60)">
    <rect x="0" y="0" width="150" height="200" rx="6" fill="#0f1721" stroke="#1c2a3a" opacity="0.9"/>
    <text x="75" y="20" fill="#6b7d8c" font-family="monospace" font-size="10" text-anchor="middle">MODULE FAMILIES</text>

    <circle cx="16" cy="40" r="5" fill="#5e9cff"/><text x="28" y="44" fill="#e6eef7" font-family="monospace" font-size="9">EulerBoundary</text>
    <circle cx="16" cy="58" r="5" fill="#c77dff"/><text x="28" y="62" fill="#e6eef7" font-family="monospace" font-size="9">FourierBridge</text>
    <circle cx="16" cy="76" r="5" fill="#4ade80"/><text x="28" y="80" fill="#e6eef7" font-family="monospace" font-size="9">SpectralBridge</text>
    <circle cx="16" cy="94" r="5" fill="#22d3d3"/><text x="28" y="98" fill="#e6eef7" font-family="monospace" font-size="9">ComplexGateway</text>
    <circle cx="16" cy="112" r="5" fill="#fbbf24"/><text x="28" y="116" fill="#e6eef7" font-family="monospace" font-size="9">ComplexNucleus</text>
    <circle cx="16" cy="130" r="5" fill="#f472b6"/><text x="28" y="134" fill="#e6eef7" font-family="monospace" font-size="9">PhaseEigenforms</text>
    <circle cx="16" cy="148" r="5" fill="#fb923c"/><text x="28" y="152" fill="#e6eef7" font-family="monospace" font-size="9">AnalyticMaps</text>
    <circle cx="16" cy="166" r="5" fill="#ef4444"/><text x="28" y="170" fill="#e6eef7" font-family="monospace" font-size="9">ContourIntegral</text>
    <circle cx="16" cy="184" r="5" fill="#d946ef"/><text x="28" y="188" fill="#e6eef7" font-family="monospace" font-size="9">CliffordBridge</text>
  </g>

  <!-- Animated indicator -->
  <g transform="translate(680,430)">
    <circle cx="10" cy="10" r="4" fill="#4a9eff">
      <animate attributeName="opacity" values="1;0.3;1" dur="2s" repeatCount="indefinite"/>
    </circle>
    <text x="25" y="14" fill="#6b7d8c" font-family="monospace" font-size="11">Auto-rotating</text>
  </g>

  <!-- Stats -->
  <text x="20" y="485" fill="#6b7d8c" font-family="monospace" font-size="11">60 declarations | e^(i*theta) complex phase formalization</text>
</svg>
