<svg xmlns="http://www.w3.org/2000/svg" viewBox="0 0 800 500" style="background:#000000">
  <defs>
    <linearGradient id="bgGrad" x1="0%" y1="0%" x2="100%" y2="100%">
      <stop offset="0%" style="stop-color:#0a0a0a"/>
      <stop offset="100%" style="stop-color:#000000"/>
    </linearGradient>
  </defs>
  <rect width="800" height="500" fill="url(#bgGrad)"/>

  <!-- Title -->
  <text x="400" y="35" fill="#f59e0b" font-family="monospace" font-size="16" font-weight="bold" text-anchor="middle">Euler Phase Lean - 2D Proof Map</text>

  <!-- Edges (subtle connections) -->
  <g stroke="rgba(245,158,11,0.25)" stroke-width="1" fill="none">
    <!-- EulerBoundary cluster -->
    <path d="M120,385 L144,362 L96,350 L160,328 L176,373"/>
    <path d="M120,385 L128,408"/>

    <!-- FourierBridge cluster -->
    <path d="M240,325 L264,302 L224,290 L280,337"/>
    <path d="M120,385 L240,325"/>

    <!-- SpectralBridge -->
    <path d="M200,250 L224,228 L176,205"/>
    <path d="M120,385 L200,250"/>

    <!-- ComplexGateway -->
    <path d="M320,275 L344,252 L304,298"/>
    <path d="M200,250 L320,275"/>

    <!-- ComplexNucleus cluster -->
    <path d="M440,325 L464,302 L416,338 L480,290"/>
    <path d="M440,325 L512,352 L400,285"/>
    <path d="M120,385 L440,325"/>

    <!-- PhaseEigenforms -->
    <path d="M560,250 L584,217 L544,243 L600,205"/>
    <path d="M440,325 L560,250"/>

    <!-- AnalyticMaps cluster -->
    <path d="M640,175 L664,142 L624,188 L680,130"/>
    <path d="M560,250 L640,175"/>

    <!-- ContourIntegral -->
    <path d="M480,110 L504,77 L464,123 L544,60"/>
    <path d="M640,175 L480,110"/>

    <!-- CliffordBridge cluster -->
    <path d="M280,160 L304,127 L256,173 L328,100"/>
    <path d="M560,250 L280,160"/>
    <path d="M440,325 L280,160"/>

    <!-- Tests -->
    <path d="M80,55 L120,385"/>
    <path d="M720,55 L560,250"/>
  </g>

  <!-- Nodes -->
  <!-- EulerBoundary (Blue #5e9cff) -->
  <circle cx="120" cy="385" r="8" fill="#5e9cff"/>
  <circle cx="144" cy="362" r="5" fill="#5e9cff"/>
  <circle cx="96" cy="350" r="5" fill="#5e9cff"/>
  <circle cx="160" cy="328" r="5" fill="#5e9cff"/>
  <circle cx="176" cy="373" r="5" fill="#5e9cff"/>
  <circle cx="128" cy="408" r="5" fill="#5e9cff"/>

  <!-- FourierBridge (Purple #c77dff) -->
  <circle cx="240" cy="325" r="7" fill="#c77dff"/>
  <circle cx="264" cy="302" r="5" fill="#c77dff"/>
  <circle cx="224" cy="290" r="5" fill="#c77dff"/>
  <circle cx="280" cy="337" r="5" fill="#c77dff"/>

  <!-- SpectralBridge (Green #4ade80) -->
  <circle cx="200" cy="250" r="7" fill="#4ade80"/>
  <circle cx="224" cy="228" r="5" fill="#4ade80"/>
  <circle cx="176" cy="205" r="5" fill="#4ade80"/>

  <!-- ComplexGateway (Cyan #22d3d3) -->
  <circle cx="320" cy="275" r="7" fill="#22d3d3"/>
  <circle cx="344" cy="252" r="5" fill="#22d3d3"/>
  <circle cx="304" cy="298" r="5" fill="#22d3d3"/>

  <!-- ComplexNucleus (Amber #fbbf24) -->
  <circle cx="440" cy="325" r="8" fill="#fbbf24"/>
  <circle cx="464" cy="302" r="5" fill="#fbbf24"/>
  <circle cx="416" cy="338" r="5" fill="#fbbf24"/>
  <circle cx="480" cy="290" r="5" fill="#fbbf24"/>
  <circle cx="512" cy="352" r="5" fill="#fbbf24"/>
  <circle cx="400" cy="285" r="5" fill="#fbbf24"/>
  <circle cx="496" cy="315" r="5" fill="#fbbf24"/>
  <circle cx="384" cy="308" r="5" fill="#fbbf24"/>
  <circle cx="448" cy="365" r="5" fill="#fbbf24"/>

  <!-- PhaseEigenforms (Pink #f472b6) -->
  <circle cx="560" cy="250" r="7" fill="#f472b6"/>
  <circle cx="584" cy="217" r="5" fill="#f472b6"/>
  <circle cx="544" cy="243" r="5" fill="#f472b6"/>
  <circle cx="600" cy="205" r="5" fill="#f472b6"/>
  <circle cx="576" cy="270" r="5" fill="#f472b6"/>

  <!-- AnalyticMaps (Orange #fb923c) -->
  <circle cx="640" cy="175" r="7" fill="#fb923c"/>
  <circle cx="664" cy="142" r="5" fill="#fb923c"/>
  <circle cx="624" cy="188" r="5" fill="#fb923c"/>
  <circle cx="680" cy="130" r="5" fill="#fb923c"/>
  <circle cx="704" cy="158" r="5" fill="#fb923c"/>
  <circle cx="608" cy="210" r="5" fill="#fb923c"/>
  <circle cx="656" cy="195" r="5" fill="#fb923c"/>
  <circle cx="640" cy="220" r="5" fill="#fb923c"/>
  <circle cx="672" cy="165" r="5" fill="#fb923c"/>

  <!-- ContourIntegral (Red #ef4444) -->
  <circle cx="480" cy="110" r="7" fill="#ef4444"/>
  <circle cx="504" cy="77" r="5" fill="#ef4444"/>
  <circle cx="464" cy="123" r="5" fill="#ef4444"/>
  <circle cx="544" cy="60" r="5" fill="#ef4444"/>
  <circle cx="520" cy="95" r="5" fill="#ef4444"/>
  <circle cx="496" cy="52" r="5" fill="#ef4444"/>
  <circle cx="456" cy="85" r="5" fill="#ef4444"/>
  <circle cx="440" cy="70" r="5" fill="#ef4444"/>

  <!-- CliffordBridge (Magenta #d946ef) -->
  <circle cx="280" cy="160" r="7" fill="#d946ef"/>
  <circle cx="304" cy="127" r="5" fill="#d946ef"/>
  <circle cx="256" cy="173" r="5" fill="#d946ef"/>
  <circle cx="328" cy="100" r="5" fill="#d946ef"/>
  <circle cx="240" cy="135" r="5" fill="#d946ef"/>
  <circle cx="296" cy="85" r="5" fill="#d946ef"/>
  <circle cx="352" cy="142" r="5" fill="#d946ef"/>
  <circle cx="264" cy="110" r="5" fill="#d946ef"/>
  <circle cx="312" cy="167" r="5" fill="#d946ef"/>
  <circle cx="288" cy="190" r="5" fill="#d946ef"/>
  <circle cx="336" cy="175" r="5" fill="#d946ef"/>

  <!-- Tests (Gray #a3a3a3) -->
  <circle cx="80" cy="55" r="5" fill="#a3a3a3"/>
  <circle cx="720" cy="55" r="5" fill="#a3a3a3"/>

  <!-- Legend -->
  <g transform="translate(620,280)">
    <rect x="0" y="0" width="160" height="200" rx="6" fill="#0a0a0a" stroke="#171717"/>
    <text x="80" y="20" fill="#a3a3a3" font-family="monospace" font-size="10" text-anchor="middle">MODULE FAMILIES</text>

    <circle cx="16" cy="40" r="5" fill="#5e9cff"/><text x="28" y="44" fill="#fafafa" font-family="monospace" font-size="10">EulerBoundary</text>
    <circle cx="16" cy="58" r="5" fill="#c77dff"/><text x="28" y="62" fill="#fafafa" font-family="monospace" font-size="10">FourierBridge</text>
    <circle cx="16" cy="76" r="5" fill="#4ade80"/><text x="28" y="80" fill="#fafafa" font-family="monospace" font-size="10">SpectralBridge</text>
    <circle cx="16" cy="94" r="5" fill="#22d3d3"/><text x="28" y="98" fill="#fafafa" font-family="monospace" font-size="10">ComplexGateway</text>
    <circle cx="16" cy="112" r="5" fill="#fbbf24"/><text x="28" y="116" fill="#fafafa" font-family="monospace" font-size="10">ComplexNucleus</text>
    <circle cx="16" cy="130" r="5" fill="#f472b6"/><text x="28" y="134" fill="#fafafa" font-family="monospace" font-size="10">PhaseEigenforms</text>
    <circle cx="16" cy="148" r="5" fill="#fb923c"/><text x="28" y="152" fill="#fafafa" font-family="monospace" font-size="10">AnalyticMaps</text>
    <circle cx="16" cy="166" r="5" fill="#ef4444"/><text x="28" y="170" fill="#fafafa" font-family="monospace" font-size="10">ContourIntegral</text>
    <circle cx="16" cy="184" r="5" fill="#d946ef"/><text x="28" y="188" fill="#fafafa" font-family="monospace" font-size="10">CliffordBridge</text>
  </g>

  <!-- Stats -->
  <text x="20" y="485" fill="#a3a3a3" font-family="monospace" font-size="11">60 declarations | Click to explore</text>
</svg>
